<svg xmlns="http://www.w3.org/2000/svg" xmlns:xlink="http://www.w3.org/1999/xlink" width="250" zoomAndPan="magnify" viewBox="0 0 187.5 37.5" height="50" preserveAspectRatio="xMidYMid meet" version="1.0"><defs><g/></defs><g fill="#266f77" fill-opacity="1"><g transform="translate(4.223583, 25.53539)"><g><path d="M 21.78125 -12.484375 L 21.78125 -7.65625 C 21.207031 -5 19.945312 -2.988281 18 -1.625 C 16.050781 -0.269531 13.878906 0.40625 11.484375 0.40625 C 8.472656 0.40625 5.910156 -0.71875 3.796875 -2.96875 C 1.679688 -5.226562 0.625 -7.953125 0.625 -11.140625 C 0.625 -14.378906 1.660156 -17.113281 3.734375 -19.34375 C 5.804688 -21.582031 8.390625 -22.703125 11.484375 -22.703125 C 15.109375 -22.703125 17.972656 -21.429688 20.078125 -18.890625 L 16.765625 -15.25 C 15.566406 -17.15625 13.90625 -18.109375 11.78125 -18.109375 C 10.21875 -18.109375 8.878906 -17.425781 7.765625 -16.0625 C 6.660156 -14.707031 6.109375 -13.066406 6.109375 -11.140625 C 6.109375 -9.242188 6.660156 -7.625 7.765625 -6.28125 C 8.878906 -4.9375 10.21875 -4.265625 11.78125 -4.265625 C 13.082031 -4.265625 14.210938 -4.65625 15.171875 -5.4375 C 16.140625 -6.226562 16.625 -7.269531 16.625 -8.5625 L 11.484375 -8.5625 L 11.484375 -12.484375 Z M 21.78125 -12.484375 "/></g></g></g><g fill="#266f77" fill-opacity="1"><g transform="translate(25.763313, 25.53539)"><g><path d="M 13.484375 -4.59375 C 14.265625 -4.59375 15.019531 -4.707031 15.75 -4.9375 C 16.476562 -5.175781 17.015625 -5.40625 17.359375 -5.625 L 17.875 -5.96875 L 20.03125 -1.65625 C 19.957031 -1.59375 19.859375 -1.515625 19.734375 -1.421875 C 19.609375 -1.335938 19.316406 -1.171875 18.859375 -0.921875 C 18.398438 -0.679688 17.90625 -0.472656 17.375 -0.296875 C 16.851562 -0.117188 16.171875 0.0390625 15.328125 0.1875 C 14.484375 0.332031 13.609375 0.40625 12.703125 0.40625 C 10.628906 0.40625 8.664062 -0.101562 6.8125 -1.125 C 4.957031 -2.144531 3.460938 -3.546875 2.328125 -5.328125 C 1.191406 -7.109375 0.625 -9.035156 0.625 -11.109375 C 0.625 -12.679688 0.957031 -14.1875 1.625 -15.625 C 2.289062 -17.0625 3.175781 -18.296875 4.28125 -19.328125 C 5.394531 -20.359375 6.6875 -21.175781 8.15625 -21.78125 C 9.632812 -22.394531 11.148438 -22.703125 12.703125 -22.703125 C 14.140625 -22.703125 15.46875 -22.53125 16.6875 -22.1875 C 17.90625 -21.84375 18.765625 -21.503906 19.265625 -21.171875 L 20.03125 -20.65625 L 17.875 -16.328125 C 17.738281 -16.429688 17.546875 -16.5625 17.296875 -16.71875 C 17.046875 -16.875 16.539062 -17.078125 15.78125 -17.328125 C 15.03125 -17.578125 14.265625 -17.703125 13.484375 -17.703125 C 12.265625 -17.703125 11.164062 -17.503906 10.1875 -17.109375 C 9.21875 -16.710938 8.445312 -16.1875 7.875 -15.53125 C 7.3125 -14.882812 6.878906 -14.1875 6.578125 -13.4375 C 6.285156 -12.695312 6.140625 -11.9375 6.140625 -11.15625 C 6.140625 -9.46875 6.773438 -7.953125 8.046875 -6.609375 C 9.316406 -5.265625 11.128906 -4.59375 13.484375 -4.59375 Z M 13.484375 -4.59375 "/></g></g></g><g fill="#266f77" fill-opacity="1"><g transform="translate(46.11422, 25.53539)"><g><path d="M 9.84375 -22.703125 C 11.050781 -22.703125 12.226562 -22.523438 13.375 -22.171875 C 14.53125 -21.828125 15.390625 -21.484375 15.953125 -21.140625 L 16.765625 -20.59375 L 14.703125 -16.546875 C 14.546875 -16.648438 14.320312 -16.785156 14.03125 -16.953125 C 13.738281 -17.128906 13.195312 -17.359375 12.40625 -17.640625 C 11.613281 -17.929688 10.875 -18.078125 10.1875 -18.078125 C 9.34375 -18.078125 8.691406 -17.894531 8.234375 -17.53125 C 7.773438 -17.175781 7.546875 -16.691406 7.546875 -16.078125 C 7.546875 -15.773438 7.648438 -15.492188 7.859375 -15.234375 C 8.078125 -14.972656 8.445312 -14.691406 8.96875 -14.390625 C 9.5 -14.097656 9.960938 -13.859375 10.359375 -13.671875 C 10.753906 -13.492188 11.363281 -13.222656 12.1875 -12.859375 C 13.632812 -12.253906 14.863281 -11.421875 15.875 -10.359375 C 16.894531 -9.304688 17.40625 -8.113281 17.40625 -6.78125 C 17.40625 -5.5 17.175781 -4.378906 16.71875 -3.421875 C 16.257812 -2.472656 15.628906 -1.726562 14.828125 -1.1875 C 14.023438 -0.644531 13.132812 -0.242188 12.15625 0.015625 C 11.1875 0.273438 10.132812 0.40625 9 0.40625 C 8.03125 0.40625 7.078125 0.304688 6.140625 0.109375 C 5.203125 -0.0859375 4.414062 -0.332031 3.78125 -0.625 C 3.15625 -0.925781 2.585938 -1.222656 2.078125 -1.515625 C 1.578125 -1.804688 1.207031 -2.050781 0.96875 -2.25 L 0.625 -2.546875 L 3.15625 -6.8125 C 3.375 -6.632812 3.671875 -6.40625 4.046875 -6.125 C 4.429688 -5.84375 5.101562 -5.46875 6.0625 -5 C 7.03125 -4.53125 7.882812 -4.296875 8.625 -4.296875 C 10.769531 -4.296875 11.84375 -5.023438 11.84375 -6.484375 C 11.84375 -6.796875 11.765625 -7.082031 11.609375 -7.34375 C 11.453125 -7.601562 11.179688 -7.863281 10.796875 -8.125 C 10.410156 -8.382812 10.066406 -8.585938 9.765625 -8.734375 C 9.472656 -8.890625 8.988281 -9.125 8.3125 -9.4375 C 7.632812 -9.757812 7.132812 -10 6.8125 -10.15625 C 5.457031 -10.820312 4.410156 -11.65625 3.671875 -12.65625 C 2.929688 -13.664062 2.5625 -14.742188 2.5625 -15.890625 C 2.5625 -17.890625 3.300781 -19.523438 4.78125 -20.796875 C 6.257812 -22.066406 7.945312 -22.703125 9.84375 -22.703125 Z M 9.84375 -22.703125 "/></g></g></g><g fill="#266f77" fill-opacity="1"><g transform="translate(64.275982, 25.53539)"><g><path d="M 14.375 -22.296875 L 14.375 -17.84375 L 6.703125 -17.84375 L 6.703125 -13.40625 L 14.0625 -13.40625 L 14.0625 -8.953125 L 6.703125 -8.953125 L 6.703125 -4.453125 L 14.375 -4.453125 L 14.375 0 L 1.625 0 L 1.625 -22.296875 Z M 14.375 -22.296875 "/></g></g></g><g fill="#562677" fill-opacity="1"><g transform="translate(79.959857, 25.53539)"><g/></g></g><g fill="#562677" fill-opacity="1"><g transform="translate(87.338077, 25.53539)"><g><path d="M 1.625 0 L 1.625 -23.25 L 6.40625 -23.25 L 6.40625 0 Z M 1.625 0 "/></g></g></g><g fill="#562677" fill-opacity="1"><g transform="translate(95.364929, 25.53539)"><g><path d="M 2.9375 -1.640625 C 1.394531 -3.015625 0.625 -4.773438 0.625 -6.921875 C 0.625 -9.066406 1.425781 -10.828125 3.03125 -12.203125 C 4.632812 -13.578125 6.613281 -14.265625 8.96875 -14.265625 C 11.300781 -14.265625 13.265625 -13.570312 14.859375 -12.1875 C 16.453125 -10.800781 17.25 -9.046875 17.25 -6.921875 C 17.25 -4.796875 16.46875 -3.039062 14.90625 -1.65625 C 13.34375 -0.28125 11.363281 0.40625 8.96875 0.40625 C 6.488281 0.40625 4.476562 -0.273438 2.9375 -1.640625 Z M 6.625 -9.265625 C 6.007812 -8.660156 5.703125 -7.878906 5.703125 -6.921875 C 5.703125 -5.960938 6 -5.179688 6.59375 -4.578125 C 7.1875 -3.972656 7.972656 -3.671875 8.953125 -3.671875 C 9.890625 -3.671875 10.65625 -3.976562 11.25 -4.59375 C 11.851562 -5.207031 12.15625 -5.984375 12.15625 -6.921875 C 12.15625 -7.878906 11.84375 -8.660156 11.21875 -9.265625 C 10.601562 -9.878906 9.847656 -10.1875 8.953125 -10.1875 C 8.023438 -10.1875 7.25 -9.878906 6.625 -9.265625 Z M 6.625 -9.265625 "/></g></g></g><g fill="#562677" fill-opacity="1"><g transform="translate(113.2294, 25.53539)"><g><path d="M 1 3.40625 L 4.921875 1.484375 C 5.640625 2.671875 6.890625 3.265625 8.671875 3.265625 C 9.503906 3.265625 10.273438 3 10.984375 2.46875 C 11.703125 1.9375 12.0625 1.125 12.0625 0.03125 L 12.0625 -1 C 11.207031 -0.0625 9.691406 0.40625 7.515625 0.40625 C 5.515625 0.40625 3.863281 -0.300781 2.5625 -1.71875 C 1.269531 -3.132812 0.625 -4.867188 0.625 -6.921875 C 0.625 -8.972656 1.269531 -10.707031 2.5625 -12.125 C 3.863281 -13.550781 5.515625 -14.265625 7.515625 -14.265625 C 9.296875 -14.265625 10.78125 -13.71875 11.96875 -12.625 L 12.0625 -12.625 L 12.0625 -13.859375 L 16.84375 -13.859375 L 16.84375 0.375 C 16.84375 2.625 16.09375 4.363281 14.59375 5.59375 C 13.101562 6.820312 11.128906 7.4375 8.671875 7.4375 C 4.710938 7.4375 2.15625 6.09375 1 3.40625 Z M 6.625 -9.265625 C 6.007812 -8.660156 5.703125 -7.878906 5.703125 -6.921875 C 5.703125 -5.960938 6 -5.179688 6.59375 -4.578125 C 7.1875 -3.972656 7.972656 -3.671875 8.953125 -3.671875 C 9.890625 -3.671875 10.65625 -3.976562 11.25 -4.59375 C 11.851562 -5.207031 12.15625 -5.984375 12.15625 -6.921875 C 12.15625 -7.878906 11.84375 -8.660156 11.21875 -9.265625 C 10.601562 -9.878906 9.847656 -10.1875 8.953125 -10.1875 C 8.023438 -10.1875 7.25 -9.878906 6.625 -9.265625 Z M 6.625 -9.265625 "/></g></g></g><g fill="#562677" fill-opacity="1"><g transform="translate(131.688452, 25.53539)"><g/></g></g><g fill="#562677" fill-opacity="1"><g transform="translate(139.066672, 25.53539)"><g><path d="M 9.328125 5.703125 L 6.21875 7.03125 C 6.09375 6.863281 5.921875 6.632812 5.703125 6.34375 C 5.484375 6.0625 5.101562 5.425781 4.5625 4.4375 C 4.019531 3.445312 3.539062 2.40625 3.125 1.3125 C 2.71875 0.21875 2.34375 -1.171875 2 -2.859375 C 1.65625 -4.554688 1.484375 -6.28125 1.484375 -8.03125 C 1.484375 -9.832031 1.660156 -11.597656 2.015625 -13.328125 C 2.367188 -15.054688 2.796875 -16.515625 3.296875 -17.703125 C 3.796875 -18.890625 4.296875 -19.953125 4.796875 -20.890625 C 5.296875 -21.828125 5.71875 -22.519531 6.0625 -22.96875 L 6.59375 -23.65625 L 9.703125 -22.328125 C 9.597656 -22.203125 9.457031 -22.015625 9.28125 -21.765625 C 9.113281 -21.523438 8.8125 -20.960938 8.375 -20.078125 C 7.945312 -19.203125 7.5625 -18.257812 7.21875 -17.25 C 6.875 -16.238281 6.566406 -14.898438 6.296875 -13.234375 C 6.023438 -11.566406 5.890625 -9.832031 5.890625 -8.03125 C 5.890625 -6.3125 6.003906 -4.664062 6.234375 -3.09375 C 6.472656 -1.53125 6.765625 -0.242188 7.109375 0.765625 C 7.453125 1.785156 7.789062 2.6875 8.125 3.46875 C 8.457031 4.257812 8.738281 4.832031 8.96875 5.1875 Z M 9.328125 5.703125 "/></g></g></g><g fill="#562677" fill-opacity="1"><g transform="translate(149.960111, 25.53539)"><g/></g></g><g fill="#562677" fill-opacity="1"><g transform="translate(157.338331, 25.53539)"><g/></g></g><g fill="#562677" fill-opacity="1"><g transform="translate(164.728052, 25.53539)"><g><path d="M 4.671875 7.03125 L 1.5625 5.703125 C 1.65625 5.578125 1.773438 5.390625 1.921875 5.140625 C 2.078125 4.898438 2.351562 4.351562 2.75 3.5 C 3.15625 2.644531 3.507812 1.726562 3.8125 0.75 C 4.113281 -0.21875 4.382812 -1.492188 4.625 -3.078125 C 4.875 -4.660156 5 -6.3125 5 -8.03125 C 5 -9.832031 4.867188 -11.554688 4.609375 -13.203125 C 4.347656 -14.847656 4.023438 -16.203125 3.640625 -17.265625 C 3.265625 -18.335938 2.890625 -19.269531 2.515625 -20.0625 C 2.148438 -20.851562 1.832031 -21.425781 1.5625 -21.78125 L 1.1875 -22.328125 L 4.296875 -23.65625 C 4.441406 -23.488281 4.625 -23.25 4.84375 -22.9375 C 5.070312 -22.632812 5.476562 -21.960938 6.0625 -20.921875 C 6.65625 -19.890625 7.175781 -18.804688 7.625 -17.671875 C 8.070312 -16.535156 8.476562 -15.09375 8.84375 -13.34375 C 9.21875 -11.601562 9.40625 -9.832031 9.40625 -8.03125 C 9.40625 -6.28125 9.242188 -4.566406 8.921875 -2.890625 C 8.597656 -1.210938 8.203125 0.191406 7.734375 1.328125 C 7.265625 2.472656 6.800781 3.492188 6.34375 4.390625 C 5.882812 5.285156 5.488281 5.945312 5.15625 6.375 Z M 4.671875 7.03125 "/></g></g></g></svg>